<svg width="64" height="64" viewBox="0 0 64 64" fill="none" xmlns="http://www.w3.org/2000/svg">
  <rect width="64" height="64" rx="18" fill="#090713"/>
  <rect x="1.5" y="1.5" width="61" height="61" rx="16.5" stroke="url(#border)" stroke-width="3"/>
  <circle cx="48" cy="16" r="11" fill="#8B5CF6" fill-opacity="0.28"/>
  <circle cx="16" cy="48" r="14" fill="#EC4899" fill-opacity="0.22"/>
  <path d="M18 43V20.5H30.25C35.25 20.5 38.35 23.35 38.35 27.45C38.35 30.15 37.02 32.05 34.78 33.05C37.4 33.95 39.08 36.05 39.08 39.02V43H33.55V39.55C33.55 36.95 32.18 35.72 29.3 35.72H23.55V43H18ZM23.55 31.3H29.58C31.68 31.3 32.85 30.15 32.85 28.25C32.85 26.42 31.68 25.25 29.58 25.25H23.55V31.3Z" fill="white"/>
  <path d="M42.5 43V20.5H48V43H42.5Z" fill="#F0ABFC"/>
  <defs>
    <linearGradient id="border" x1="6" y1="6" x2="58" y2="58" gradientUnits="userSpaceOnUse">
      <stop stop-color="#8B5CF6"/>
      <stop offset="0.55" stop-color="#EC4899"/>
      <stop offset="1" stop-color="#F59E0B"/>
    </linearGradient>
  </defs>
</svg>
